<svg width="36" height="35" viewBox="0 0 36 35" fill="none" xmlns="http://www.w3.org/2000/svg">
<path d="M9.25029 33.7813C8.89391 33.7813 8.55212 33.6397 8.30012 33.3877C8.04812 33.1357 7.90654 32.7939 7.90654 32.4376V25.2653C7.16935 25.6169 6.35232 25.7676 5.53818 25.702C4.84883 25.6514 4.17911 25.4494 3.5767 25.1105C2.97428 24.7715 2.45398 24.304 2.05282 23.7411C1.65166 23.1782 1.3795 22.5338 1.25572 21.8538C1.13193 21.1737 1.15957 20.4748 1.33665 19.8066C1.51373 19.1385 1.83591 18.5176 2.28026 17.9881C2.72461 17.4586 3.2802 17.0336 3.90749 16.7433C4.53478 16.453 5.21835 16.3045 5.90955 16.3085C6.60076 16.3124 7.28259 16.4686 7.90654 16.7661V9.5938C7.90654 9.23741 8.04812 8.89563 8.30012 8.64363C8.55212 8.39162 8.89391 8.25005 9.25029 8.25005H17.0944C16.7428 7.51285 16.5921 6.69583 16.6577 5.88169C16.7084 5.19234 16.9103 4.52262 17.2493 3.9202C17.5882 3.31779 18.0557 2.79749 18.6186 2.39633C19.1815 1.99516 19.8259 1.72301 20.506 1.59922C21.186 1.47544 21.885 1.50307 22.5531 1.68016C23.2212 1.85724 23.8421 2.17942 24.3716 2.62377C24.9011 3.06811 25.3261 3.6237 25.6164 4.25099C25.9067 4.87829 26.0552 5.56186 26.0512 6.25306C26.0473 6.94426 25.8911 7.6261 25.5937 8.25005H33.4378C33.7942 8.25005 34.136 8.39162 34.388 8.64363C34.64 8.89563 34.7815 9.23741 34.7815 9.5938V16.7661C34.0443 16.4144 33.2273 16.2637 32.4132 16.3293C31.7238 16.38 31.0541 16.582 30.4517 16.9209C29.8493 17.2598 29.329 17.7274 28.9278 18.2903C28.5267 18.8532 28.2545 19.4975 28.1307 20.1776C28.0069 20.8576 28.0346 21.5566 28.2117 22.2247C28.3887 22.8929 28.7109 23.5138 29.1553 24.0432C29.5996 24.5727 30.1552 24.9977 30.7825 25.288C31.4098 25.5783 32.0934 25.7268 32.7846 25.7229C33.4758 25.7189 34.1576 25.5627 34.7815 25.2653V32.4376C34.7815 32.7939 34.64 33.1357 34.388 33.3877C34.136 33.6397 33.7942 33.7813 33.4378 33.7813H9.25029Z" stroke="white" stroke-width="2" stroke-linecap="round" stroke-linejoin="round"/>
</svg>
