<svg width="134" height="35" viewBox="0 0 134 35" fill="none" xmlns="http://www.w3.org/2000/svg">
<path d="M46.9269 5.4H47.6569V10H46.9269V9.17C46.5769 9.72 45.9969 10.08 45.2169 10.08C43.9069 10.08 42.9769 9.07 42.9769 7.7C42.9769 6.32 43.9069 5.33 45.2169 5.33C45.9969 5.33 46.5769 5.68 46.9269 6.23V5.4ZM45.3069 9.39C46.2969 9.39 46.9269 8.68 46.9269 7.7C46.9269 6.72 46.2969 6.02 45.3069 6.02C44.3269 6.02 43.6769 6.72 43.6769 7.7C43.6769 8.68 44.3269 9.39 45.3069 9.39ZM51.1079 5.33C52.0279 5.33 52.9379 5.87 52.9379 7.17V10H52.2179V7.27C52.2179 6.39 51.5979 5.96 50.9179 5.96C50.2279 5.96 49.6279 6.39 49.6279 7.27V10H48.9079V5.4H49.6279V6.02C49.9779 5.54 50.5379 5.33 51.1079 5.33ZM58.0109 3.5H58.7409V10H58.0109V9.17C57.6609 9.72 57.0809 10.08 56.3009 10.08C54.9909 10.08 54.0609 9.07 54.0609 7.7C54.0609 6.32 54.9909 5.33 56.3009 5.33C57.0809 5.33 57.6609 5.68 58.0109 6.23V3.5ZM56.3909 9.39C57.3809 9.39 58.0109 8.68 58.0109 7.7C58.0109 6.72 57.3809 6.02 56.3909 6.02C55.4109 6.02 54.7609 6.72 54.7609 7.7C54.7609 8.68 55.4109 9.39 56.3909 9.39ZM60.7119 6.25C61.0619 5.62 61.6819 5.34 62.3319 5.33V6.02C61.6219 6.03 60.7119 6.4 60.7119 7.52V10H59.9919V5.4H60.7119V6.25ZM65.1411 10.09C63.7611 10.09 62.8011 9.07 62.8011 7.7C62.8011 6.32 63.7611 5.32 65.1411 5.32C66.5211 5.32 67.4811 6.32 67.4811 7.7C67.4811 9.07 66.5211 10.09 65.1411 10.09ZM65.1411 9.39C66.1111 9.39 66.7511 8.67 66.7511 7.7C66.7511 6.73 66.1111 6.02 65.1411 6.02C64.1711 6.02 63.5211 6.73 63.5211 7.7C63.5211 8.67 64.1711 9.39 65.1411 9.39ZM69.0354 4.42C68.8154 4.42 68.5954 4.24 68.5954 3.97C68.5954 3.7 68.8154 3.54 69.0354 3.54C69.2554 3.54 69.4754 3.7 69.4754 3.97C69.4754 4.24 69.2554 4.42 69.0354 4.42ZM69.3954 10H68.6754V5.4H69.4054L69.3954 10ZM74.5441 3.5H75.2741V10H74.5441V9.17C74.1941 9.72 73.6141 10.08 72.8341 10.08C71.5241 10.08 70.5941 9.07 70.5941 7.7C70.5941 6.32 71.5241 5.33 72.8341 5.33C73.6141 5.33 74.1941 5.68 74.5441 6.23V3.5ZM72.9241 9.39C73.9141 9.39 74.5441 8.68 74.5441 7.7C74.5441 6.72 73.9141 6.02 72.9241 6.02C71.9441 6.02 71.2941 6.72 71.2941 7.7C71.2941 8.68 71.9441 9.39 72.9241 9.39ZM82.3371 5.4H83.0671V10H82.3371V9.17C81.9871 9.72 81.4071 10.08 80.6271 10.08C79.3171 10.08 78.3871 9.07 78.3871 7.7C78.3871 6.32 79.3171 5.33 80.6271 5.33C81.4071 5.33 81.9871 5.68 82.3371 6.23V5.4ZM80.7171 9.39C81.7071 9.39 82.3371 8.68 82.3371 7.7C82.3371 6.72 81.7071 6.02 80.7171 6.02C79.7371 6.02 79.0871 6.72 79.0871 7.7C79.0871 8.68 79.7371 9.39 80.7171 9.39ZM86.7481 5.33C88.0581 5.33 88.9981 6.34 88.9981 7.71C88.9981 9.09 88.0581 10.08 86.7481 10.08C85.9681 10.08 85.3881 9.73 85.0381 9.17V11.84H84.3181V5.4H85.0381V6.24C85.3881 5.68 85.9681 5.33 86.7481 5.33ZM86.6581 9.39C87.6381 9.39 88.2881 8.69 88.2881 7.71C88.2881 6.73 87.6381 6.02 86.6581 6.02C85.6781 6.02 85.0381 6.73 85.0381 7.71C85.0381 8.69 85.6781 9.39 86.6581 9.39ZM92.5391 5.33C93.8491 5.33 94.7891 6.34 94.7891 7.71C94.7891 9.09 93.8491 10.08 92.5391 10.08C91.7591 10.08 91.1791 9.73 90.8291 9.17V11.84H90.1091V5.4H90.8291V6.24C91.1791 5.68 91.7591 5.33 92.5391 5.33ZM92.4491 9.39C93.4291 9.39 94.0791 8.69 94.0791 7.71C94.0791 6.73 93.4291 6.02 92.4491 6.02C91.4691 6.02 90.8291 6.73 90.8291 7.71C90.8291 8.69 91.4691 9.39 92.4491 9.39ZM100.102 10.09C98.7221 10.09 97.7621 9.07 97.7621 7.7C97.7621 6.32 98.7221 5.32 100.102 5.32C101.482 5.32 102.442 6.32 102.442 7.7C102.442 9.07 101.482 10.09 100.102 10.09ZM100.102 9.39C101.072 9.39 101.712 8.67 101.712 7.7C101.712 6.73 101.072 6.02 100.102 6.02C99.1321 6.02 98.4821 6.73 98.4821 7.7C98.4821 8.67 99.1321 9.39 100.102 9.39ZM105.756 5.33C106.676 5.33 107.586 5.87 107.586 7.17V10H106.866V7.27C106.866 6.39 106.246 5.96 105.566 5.96C104.876 5.96 104.276 6.39 104.276 7.27V10H103.556V5.4H104.276V6.02C104.626 5.54 105.186 5.33 105.756 5.33Z" fill="white"/>
<path d="M52.1246 25.1807C52.0166 28.5107 49.8926 30.9047 46.5086 30.9047C43.0346 30.9047 40.6586 28.3847 40.6586 24.9107C40.6586 21.4367 43.0346 18.9167 46.5086 18.9167C48.5786 18.9167 50.2346 19.8167 51.2426 21.2567L50.1266 22.0487C49.2986 20.8967 48.0026 20.2847 46.5086 20.2847C43.8266 20.2847 42.0086 22.2287 42.0086 24.9107C42.0086 27.5927 43.8266 29.5367 46.5086 29.5367C48.7226 29.5367 50.3606 28.1147 50.5946 25.8647H46.4546V24.6047H52.1246V25.1807ZM58.1756 30.9227C55.6916 30.9227 53.9636 29.0867 53.9636 26.6207C53.9636 24.1367 55.6916 22.3367 58.1756 22.3367C60.6596 22.3367 62.3876 24.1367 62.3876 26.6207C62.3876 29.0867 60.6596 30.9227 58.1756 30.9227ZM58.1756 29.6627C59.9216 29.6627 61.0736 28.3667 61.0736 26.6207C61.0736 24.8747 59.9216 23.5967 58.1756 23.5967C56.4296 23.5967 55.2596 24.8747 55.2596 26.6207C55.2596 28.3667 56.4296 29.6627 58.1756 29.6627ZM68.3533 30.9227C65.8693 30.9227 64.1413 29.0867 64.1413 26.6207C64.1413 24.1367 65.8693 22.3367 68.3533 22.3367C70.8373 22.3367 72.5653 24.1367 72.5653 26.6207C72.5653 29.0867 70.8373 30.9227 68.3533 30.9227ZM68.3533 29.6627C70.0993 29.6627 71.2513 28.3667 71.2513 26.6207C71.2513 24.8747 70.0993 23.5967 68.3533 23.5967C66.6073 23.5967 65.4373 24.8747 65.4373 26.6207C65.4373 28.3667 66.6073 29.6627 68.3533 29.6627ZM81.4291 22.4807H82.7431V30.1487C82.7431 32.5247 81.0511 34.1807 78.3871 34.1807C76.9471 34.1807 75.7231 33.6227 74.9671 32.7227L75.8491 31.9847C76.5151 32.7227 77.4331 33.0467 78.3871 33.0467C79.9171 33.0467 81.4291 32.1287 81.4291 30.1487V29.2667C80.7991 30.2567 79.7551 30.9047 78.3511 30.9047C75.9931 30.9047 74.3191 29.0867 74.3191 26.6207C74.3191 24.1547 75.9931 22.3547 78.3511 22.3547C79.7551 22.3547 80.7991 22.9847 81.4291 23.9747V22.4807ZM78.5131 29.6627C80.2771 29.6627 81.4291 28.3847 81.4291 26.6207C81.4291 24.8567 80.2771 23.5967 78.5131 23.5967C76.7491 23.5967 75.5791 24.8567 75.5791 26.6207C75.5791 28.3847 76.7491 29.6627 78.5131 29.6627ZM86.2909 30.7607H84.9949V19.0607H86.2909V30.7607ZM92.3973 22.3367C94.7733 22.3367 96.3573 24.1547 96.3573 26.6207V27.0347H89.5713C89.7333 28.6907 90.8673 29.7887 92.5053 29.7887C93.7293 29.7887 94.5753 29.2307 95.0433 28.5287L95.9613 29.1947C95.2413 30.2567 94.0173 30.9227 92.5053 30.9227C89.9853 30.9227 88.3113 29.0867 88.3113 26.6207C88.3113 24.1547 89.9133 22.3367 92.3973 22.3367ZM92.3973 23.4167C90.7773 23.4167 89.7513 24.5147 89.5713 26.1347H95.1513C94.9713 24.5687 93.9453 23.4167 92.3973 23.4167ZM107.249 19.0607C109.013 19.0607 110.597 20.4647 110.597 22.6247C110.597 24.7847 109.013 26.1887 107.249 26.1887H103.325V30.7607H101.975V19.0607H107.249ZM107.051 24.8747C108.311 24.8747 109.229 23.8847 109.229 22.6247C109.229 21.3827 108.329 20.3927 107.051 20.3927H103.325V24.8747H107.051ZM113.783 30.7607H112.487V19.0607H113.783V30.7607ZM122.913 22.4807H124.227V30.7607H122.913V29.2667C122.283 30.2567 121.239 30.9047 119.835 30.9047C117.477 30.9047 115.803 29.0867 115.803 26.6207C115.803 24.1367 117.477 22.3547 119.835 22.3547C121.239 22.3547 122.283 22.9847 122.913 23.9747V22.4807ZM119.997 29.6627C121.779 29.6627 122.913 28.3847 122.913 26.6207C122.913 24.8567 121.779 23.5967 119.997 23.5967C118.233 23.5967 117.063 24.8567 117.063 26.6207C117.063 28.3847 118.233 29.6627 119.997 29.6627ZM132.185 22.4807H133.535L128.927 34.0727H127.649L128.945 30.7427L125.705 22.4807H127.055L129.611 28.9607L132.185 22.4807Z" fill="white"/>
<path d="M0.670593 33.1189V0.142578L30.3223 16.159L0.670593 33.1189Z" fill="#5CA9B3"/>
<path d="M0.670593 0.142578L21.6514 21.1234L30.3223 16.159L0.670593 0.142578Z" fill="#C8DB9B"/>
<path d="M21.4716 11.374L0.670532 33.1186L30.3222 16.1587L21.4716 11.374Z" fill="#AC5067"/>
<path d="M21.6517 21.1231L30.3225 16.1587L21.4719 11.374L16.7996 16.2711L21.6517 21.1231Z" fill="#F4A676"/>
</svg>
