<svg width="13" height="14" viewBox="0 0 13 14" fill="none" xmlns="http://www.w3.org/2000/svg">
<path d="M2.8389 4.24403V13.272H0.427561V4.24403H2.8389ZM0.277373 1.8911C0.277373 1.54066 0.399748 1.25141 0.644499 1.02335C0.889249 0.795284 1.21744 0.681253 1.62906 0.681253C2.03512 0.681253 2.36053 0.795284 2.60528 1.02335C2.85559 1.25141 2.98075 1.54066 2.98075 1.8911C2.98075 2.24153 2.85559 2.53078 2.60528 2.75885C2.36053 2.98691 2.03512 3.10094 1.62906 3.10094C1.21744 3.10094 0.889249 2.98691 0.644499 2.75885C0.399748 2.53078 0.277373 2.24153 0.277373 1.8911ZM7.51942 6.17144V13.272H5.11642V4.24403H7.36923L7.51942 6.17144ZM7.16898 8.44094H6.51817C6.51817 7.77344 6.60438 7.17269 6.77682 6.63869C6.94926 6.09913 7.19123 5.64022 7.50273 5.26197C7.81423 4.87816 8.18413 4.58613 8.61245 4.38588C9.04632 4.18007 9.53026 4.07716 10.0643 4.07716C10.487 4.07716 10.8736 4.13835 11.224 4.26072C11.5745 4.3831 11.8749 4.57778 12.1252 4.84478C12.381 5.11178 12.5757 5.465 12.7092 5.90444C12.8483 6.34388 12.9178 6.88066 12.9178 7.51478V13.272H10.4981V7.50644C10.4981 7.10594 10.4425 6.79444 10.3313 6.57194C10.22 6.34944 10.0559 6.19369 9.83898 6.10469C9.6276 6.01013 9.36617 5.96285 9.05467 5.96285C8.73204 5.96285 8.45113 6.02682 8.21195 6.15475C7.97832 6.28269 7.78363 6.46069 7.62788 6.68875C7.4777 6.91125 7.36367 7.17269 7.28579 7.47307C7.20792 7.77344 7.16898 8.09607 7.16898 8.44094Z" fill="#2A2F2F"/>
</svg>
