<svg width="19" height="15" viewBox="0 0 19 15" fill="none" xmlns="http://www.w3.org/2000/svg">
<path d="M16.3464 3.99475C16.3577 4.15286 16.3577 4.31101 16.3577 4.46912C16.3577 9.29181 12.687 14.8487 5.97814 14.8487C3.91126 14.8487 1.99122 14.25 0.376114 13.211C0.669779 13.2449 0.952111 13.2562 1.25707 13.2562C2.9625 13.2562 4.53245 12.6802 5.78613 11.6976C4.18232 11.6637 2.83828 10.6133 2.37521 9.16759C2.60111 9.20145 2.82699 9.22405 3.06419 9.22405C3.39172 9.22405 3.71928 9.17886 4.02421 9.09983C2.35264 8.76097 1.09893 7.29272 1.09893 5.5195V5.47434C1.58457 5.7454 2.14933 5.91482 2.74789 5.93738C1.76528 5.28229 1.12152 4.16416 1.12152 2.89918C1.12152 2.22153 1.3022 1.60033 1.61846 1.0582C3.41428 3.2719 6.11366 4.71756 9.14053 4.87571C9.08407 4.60464 9.05017 4.32231 9.05017 4.03994C9.05017 2.02952 10.6766 0.391846 12.6983 0.391846C13.7486 0.391846 14.6974 0.832326 15.3637 1.54387C16.1882 1.38576 16.9788 1.0808 17.6791 0.662913C17.408 1.51001 16.832 2.22156 16.0753 2.67331C16.8094 2.59428 17.521 2.39094 18.176 2.10861C17.6792 2.83142 17.0579 3.47517 16.3464 3.99475Z" fill="#2A2F2F"/>
</svg>
