<svg width="121" height="36" viewBox="0 0 121 36" fill="none" xmlns="http://www.w3.org/2000/svg">
<path d="M50.5246 10.8496L49.8746 9.24961H46.8546L46.2046 10.8496H45.4046L48.0746 4.34961H48.6546L51.3246 10.8496H50.5246ZM47.1346 8.54961H49.5846L48.3546 5.51961L47.1346 8.54961ZM52.9733 10.8496L51.1633 6.24961H51.9133L53.3333 9.85961L54.7633 6.24961H55.5133L53.6833 10.8496H52.9733ZM59.9834 6.24961H60.7134V10.8496H59.9834V10.0196C59.6334 10.5696 59.0534 10.9296 58.2734 10.9296C56.9634 10.9296 56.0334 9.91961 56.0334 8.54961C56.0334 7.16961 56.9634 6.17961 58.2734 6.17961C59.0534 6.17961 59.6334 6.52961 59.9834 7.07961V6.24961ZM58.3634 10.2396C59.3534 10.2396 59.9834 9.52961 59.9834 8.54961C59.9834 7.56961 59.3534 6.86961 58.3634 6.86961C57.3834 6.86961 56.7334 7.56961 56.7334 8.54961C56.7334 9.52961 57.3834 10.2396 58.3634 10.2396ZM62.4044 5.26961C62.1844 5.26961 61.9644 5.08961 61.9644 4.81961C61.9644 4.54961 62.1844 4.38961 62.4044 4.38961C62.6244 4.38961 62.8444 4.54961 62.8444 4.81961C62.8444 5.08961 62.6244 5.26961 62.4044 5.26961ZM62.7644 10.8496H62.0444V6.24961H62.7744L62.7644 10.8496ZM64.8231 10.8496H64.1031V4.34961H64.8231V10.8496ZM69.8955 6.24961H70.6255V10.8496H69.8955V10.0196C69.5455 10.5696 68.9655 10.9296 68.1855 10.9296C66.8755 10.9296 65.9455 9.91961 65.9455 8.54961C65.9455 7.16961 66.8755 6.17961 68.1855 6.17961C68.9655 6.17961 69.5455 6.52961 69.8955 7.07961V6.24961ZM68.2755 10.2396C69.2655 10.2396 69.8955 9.52961 69.8955 8.54961C69.8955 7.56961 69.2655 6.86961 68.2755 6.86961C67.2955 6.86961 66.6455 7.56961 66.6455 8.54961C66.6455 9.52961 67.2955 10.2396 68.2755 10.2396ZM74.3065 6.17961C75.6165 6.17961 76.5565 7.16961 76.5565 8.54961C76.5565 9.91961 75.6165 10.9296 74.3065 10.9296C73.5265 10.9296 72.9465 10.5696 72.5965 10.0196V10.8496H71.8765V4.34961H72.5965V7.07961C72.9465 6.52961 73.5265 6.17961 74.3065 6.17961ZM74.2165 10.2396C75.1965 10.2396 75.8465 9.52961 75.8465 8.54961C75.8465 7.56961 75.1965 6.86961 74.2165 6.86961C73.2365 6.86961 72.5965 7.56961 72.5965 8.54961C72.5965 9.52961 73.2365 10.2396 74.2165 10.2396ZM78.3875 10.8496H77.6675V4.34961H78.3875V10.8496ZM81.7799 6.16961C83.0999 6.16961 83.9799 7.17961 83.9799 8.54961V8.77961H80.2099C80.2999 9.69961 80.9299 10.3096 81.8399 10.3096C82.5199 10.3096 82.9899 9.99961 83.2499 9.60961L83.7599 9.97961C83.3599 10.5696 82.6799 10.9396 81.8399 10.9396C80.4399 10.9396 79.5099 9.91961 79.5099 8.54961C79.5099 7.17961 80.3999 6.16961 81.7799 6.16961ZM81.7799 6.76961C80.8799 6.76961 80.3099 7.37961 80.2099 8.27961H83.3099C83.2099 7.40961 82.6399 6.76961 81.7799 6.76961ZM89.3011 10.9396C87.9211 10.9396 86.9611 9.91961 86.9611 8.54961C86.9611 7.16961 87.9211 6.16961 89.3011 6.16961C90.6811 6.16961 91.6411 7.16961 91.6411 8.54961C91.6411 9.91961 90.6811 10.9396 89.3011 10.9396ZM89.3011 10.2396C90.2711 10.2396 90.9111 9.51961 90.9111 8.54961C90.9111 7.57961 90.2711 6.86961 89.3011 6.86961C88.3311 6.86961 87.6811 7.57961 87.6811 8.54961C87.6811 9.51961 88.3311 10.2396 89.3011 10.2396ZM94.9554 6.17961C95.8754 6.17961 96.7854 6.71961 96.7854 8.01961V10.8496H96.0654V8.11961C96.0654 7.23961 95.4454 6.80961 94.7654 6.80961C94.0754 6.80961 93.4754 7.23961 93.4754 8.11961V10.8496H92.7554V6.24961H93.4754V6.86961C93.8254 6.38961 94.3854 6.17961 94.9554 6.17961ZM102.22 6.81961H101.12V9.64961C101.12 10.1396 101.42 10.2596 101.76 10.2596H102.17V10.8496H101.5C100.8 10.8496 100.39 10.4496 100.39 9.74961V6.81961H99.7503V6.24961H100.39V4.84961H101.12V6.24961H102.22V6.81961ZM105.414 6.17961C106.334 6.17961 107.244 6.71961 107.244 8.01961V10.8496H106.524V8.11961C106.524 7.23961 105.904 6.80961 105.224 6.80961C104.534 6.80961 103.934 7.23961 103.934 8.11961V10.8496H103.214V4.34961H103.934V6.86961C104.284 6.38961 104.844 6.17961 105.414 6.17961ZM110.637 6.16961C111.957 6.16961 112.837 7.17961 112.837 8.54961V8.77961H109.067C109.157 9.69961 109.787 10.3096 110.697 10.3096C111.377 10.3096 111.847 9.99961 112.107 9.60961L112.617 9.97961C112.217 10.5696 111.537 10.9396 110.697 10.9396C109.297 10.9396 108.367 9.91961 108.367 8.54961C108.367 7.17961 109.257 6.16961 110.637 6.16961ZM110.637 6.76961C109.737 6.76961 109.167 7.37961 109.067 8.27961H112.167C112.067 7.40961 111.497 6.76961 110.637 6.76961Z" fill="white"/>
<path d="M52.4719 32.0007L51.3019 29.1207H45.8659L44.6959 32.0007H43.2559L48.0619 20.3007H49.1059L53.9119 32.0007H52.4719ZM46.3699 27.8607H50.7799L48.5659 22.4067L46.3699 27.8607ZM59.8417 23.5947C62.1997 23.5947 63.8917 25.4127 63.8917 27.8787C63.8917 30.3627 62.1997 32.1447 59.8417 32.1447C58.4377 32.1447 57.3937 31.5147 56.7637 30.5067V35.3127H55.4677V23.7207H56.7637V25.2327C57.3937 24.2247 58.4377 23.5947 59.8417 23.5947ZM59.6797 30.9027C61.4437 30.9027 62.6137 29.6427 62.6137 27.8787C62.6137 26.1147 61.4437 24.8367 59.6797 24.8367C57.9157 24.8367 56.7637 26.1147 56.7637 27.8787C56.7637 29.6427 57.9157 30.9027 59.6797 30.9027ZM70.2656 23.5947C72.6236 23.5947 74.3156 25.4127 74.3156 27.8787C74.3156 30.3627 72.6236 32.1447 70.2656 32.1447C68.8616 32.1447 67.8176 31.5147 67.1876 30.5067V35.3127H65.8916V23.7207H67.1876V25.2327C67.8176 24.2247 68.8616 23.5947 70.2656 23.5947ZM70.1036 30.9027C71.8676 30.9027 73.0376 29.6427 73.0376 27.8787C73.0376 26.1147 71.8676 24.8367 70.1036 24.8367C68.3396 24.8367 67.1876 26.1147 67.1876 27.8787C67.1876 29.6427 68.3396 30.9027 70.1036 30.9027ZM79.5589 29.4987L80.6749 28.7607C81.0889 29.8587 82.5289 30.8487 84.4729 30.8487C86.4889 30.8487 87.3349 30.0927 87.3349 28.7427C87.3349 27.2127 85.0489 26.8527 83.9869 26.5467C82.8529 26.2407 79.9729 25.7547 79.9729 23.3427C79.9729 21.1467 81.8449 20.1027 84.3469 20.1027C86.5069 20.1027 88.2349 21.1467 88.6669 22.4247L87.5509 23.0907C87.2269 22.2267 85.8949 21.4527 84.2029 21.4527C82.4569 21.4527 81.5029 22.1367 81.5029 23.2887C81.5029 24.7287 83.5909 25.0347 84.7429 25.3407C85.7869 25.6467 88.8289 26.2587 88.8289 28.6887C88.8289 30.9927 87.1549 32.1987 84.3469 32.1987C81.8269 32.1987 80.1169 31.0287 79.5589 29.4987ZM94.6355 24.7467H92.6555V29.8407C92.6555 30.7227 93.1955 30.9387 93.8075 30.9387H94.5455V32.0007H93.3395C92.0795 32.0007 91.3415 31.2807 91.3415 30.0207V24.7467H90.1895V23.7207H91.3415V21.2007H92.6555V23.7207H94.6355V24.7467ZM99.9629 32.1627C97.4789 32.1627 95.7509 30.3267 95.7509 27.8607C95.7509 25.3767 97.4789 23.5767 99.9629 23.5767C102.447 23.5767 104.175 25.3767 104.175 27.8607C104.175 30.3267 102.447 32.1627 99.9629 32.1627ZM99.9629 30.9027C101.709 30.9027 102.861 29.6067 102.861 27.8607C102.861 26.1147 101.709 24.8367 99.9629 24.8367C98.2169 24.8367 97.0469 26.1147 97.0469 27.8607C97.0469 29.6067 98.2169 30.9027 99.9629 30.9027ZM107.477 25.2507C108.107 24.1167 109.223 23.6127 110.393 23.5947V24.8367C109.115 24.8547 107.477 25.5207 107.477 27.5367V32.0007H106.181V23.7207H107.477V25.2507ZM115.323 23.5767C117.699 23.5767 119.283 25.3947 119.283 27.8607V28.2747H112.497C112.659 29.9307 113.793 31.0287 115.431 31.0287C116.655 31.0287 117.501 30.4707 117.969 29.7687L118.887 30.4347C118.167 31.4967 116.943 32.1627 115.431 32.1627C112.911 32.1627 111.237 30.3267 111.237 27.8607C111.237 25.3947 112.839 23.5767 115.323 23.5767ZM115.323 24.6567C113.703 24.6567 112.677 25.7547 112.497 27.3747H118.077C117.897 25.8087 116.871 24.6567 115.323 24.6567Z" fill="white"/>
<path d="M18.9334 2.73755H3.02932C1.72644 2.73755 0.670654 3.7933 0.670654 5.09618V32.0073C0.670654 33.3102 1.72644 34.366 3.02932 34.366H18.9334C20.2363 34.366 21.2921 33.3102 21.2921 32.0073V5.09618C21.2921 3.81576 20.2138 2.73755 18.9334 2.73755Z" fill="white"/>
<path d="M20.1464 6.53394H1.79382V28.7278H20.1464V6.53394Z" fill="#404040"/>
<path d="M14.7328 4.15234H7.20758C6.91556 4.15234 6.646 4.39944 6.646 4.71393C6.646 5.02842 6.89309 5.27551 7.20758 5.27551H14.7328C15.0249 5.27551 15.2944 5.02842 15.2944 4.71393C15.2944 4.4219 15.0473 4.15234 14.7328 4.15234Z" fill="#6639A6"/>
<path d="M9.18457 31.4008C9.18457 30.4124 9.99326 29.5813 10.9816 29.5813C11.97 29.5813 12.8012 30.39 12.8012 31.4008C12.8012 32.3892 11.9925 33.1979 10.9816 33.1979C9.99326 33.2203 9.18457 32.4117 9.18457 31.4008Z" fill="#6639A6"/>
</svg>
